<?xml version="1.0" encoding="UTF-8" standalone="no"?>
<!DOCTYPE svg PUBLIC "-//W3C//DTD SVG 1.1//EN"
 "http://www.w3.org/Graphics/SVG/1.1/DTD/svg11.dtd">
<!-- Generated by graphviz version 2.47.0 (20210316.0004)
 -->
<!-- Title: dependencies Pages: 1 -->
<svg width="2055pt" height="284pt"
 viewBox="0.00 0.00 2055.00 284.00" xmlns="http://www.w3.org/2000/svg" xmlns:xlink="http://www.w3.org/1999/xlink">
<g id="graph0" class="graph" transform="scale(1 1) rotate(0) translate(4 280)">
<title>dependencies</title>
<polygon fill="white" stroke="transparent" points="-4,4 -4,-280 2051,-280 2051,4 -4,4"/>
<text text-anchor="start" x="1002.51" y="-42.4" font-family="Times-12" font-weight="bold" font-size="14.00">Legend</text>
<polygon fill="#ffffb3" stroke="transparent" points="789.5,-10 789.5,-30 809.5,-30 809.5,-10 789.5,-10"/>
<text text-anchor="start" x="813.13" y="-15.4" font-family="Times-12" font-size="14.00"> &#160;Declarations</text>
<polygon fill="#8dd3c7" stroke="transparent" points="902.5,-10 902.5,-30 922.5,-30 922.5,-10 902.5,-10"/>
<text text-anchor="start" x="926.23" y="-15.4" font-family="Times-12" font-size="14.00"> &#160;Module</text>
<polygon fill="#80b1d3" stroke="transparent" points="988.5,-10 988.5,-30 1008.5,-30 1008.5,-10 988.5,-10"/>
<text text-anchor="start" x="1012.28" y="-15.4" font-family="Times-12" font-size="14.00"> &#160;Bootstrap</text>
<polygon fill="#fdb462" stroke="transparent" points="1085.5,-10 1085.5,-30 1105.5,-30 1105.5,-10 1085.5,-10"/>
<text text-anchor="start" x="1109.17" y="-15.4" font-family="Times-12" font-size="14.00"> &#160;Providers</text>
<polygon fill="#fb8072" stroke="transparent" points="1181.5,-10 1181.5,-30 1201.5,-30 1201.5,-10 1181.5,-10"/>
<text text-anchor="start" x="1205.23" y="-15.4" font-family="Times-12" font-size="14.00"> &#160;Exports</text>
<g id="clust1" class="cluster">
<title>cluster_AppModule</title>
<polygon fill="none" stroke="black" stroke-dasharray="1,5" points="8,-70 8,-268 2039,-268 2039,-70 8,-70"/>
</g>
<g id="clust17" class="cluster">
<title>cluster_AppModule_providers</title>
<polygon fill="none" stroke="black" points="1877,-78 1877,-130 2031,-130 2031,-78 1877,-78"/>
</g>
<g id="clust14" class="cluster">
<title>cluster_AppModule_imports</title>
<polygon fill="none" stroke="black" points="1725,-78 1725,-130 1869,-130 1869,-78 1725,-78"/>
</g>
<g id="clust16" class="cluster">
<title>cluster_AppModule_bootstrap</title>
<polygon fill="none" stroke="black" points="953,-208 953,-260 1077,-260 1077,-208 953,-208"/>
</g>
<g id="clust2" class="cluster">
<title>cluster_AppModule_declarations</title>
<polygon fill="none" stroke="black" points="16,-78 16,-130 1717,-130 1717,-78 16,-78"/>
</g>
<!-- AboutJsonComponent -->
<g id="node1" class="node">
<title>AboutJsonComponent</title>
<polygon fill="#ffffb3" stroke="black" points="1708.72,-122 1567.28,-122 1567.28,-86 1708.72,-86 1708.72,-122"/>
<text text-anchor="middle" x="1638" y="-99.8" font-family="Times,serif" font-size="14.00">AboutJsonComponent</text>
</g>
<!-- AppModule -->
<g id="node12" class="node">
<title>AppModule</title>
<polygon fill="#8dd3c7" stroke="black" points="1056.66,-187 1053.66,-191 1032.66,-191 1029.66,-187 973.34,-187 973.34,-151 1056.66,-151 1056.66,-187"/>
<text text-anchor="middle" x="1015" y="-164.8" font-family="Times,serif" font-size="14.00">AppModule</text>
</g>
<!-- AboutJsonComponent&#45;&gt;AppModule -->
<g id="edge1" class="edge">
<title>AboutJsonComponent&#45;&gt;AppModule</title>
<path fill="none" stroke="black" d="M1638,-122.22C1638,-142.37 1638,-172 1638,-172 1638,-172 1066.84,-172 1066.84,-172"/>
<polygon fill="black" stroke="black" points="1066.84,-168.5 1056.84,-172 1066.84,-175.5 1066.84,-168.5"/>
</g>
<!-- AppComponent -->
<g id="node2" class="node">
<title>AppComponent</title>
<polygon fill="#ffffb3" stroke="black" points="1549.94,-122 1444.06,-122 1444.06,-86 1549.94,-86 1549.94,-122"/>
<text text-anchor="middle" x="1497" y="-99.8" font-family="Times,serif" font-size="14.00">AppComponent</text>
</g>
<!-- AppComponent&#45;&gt;AppModule -->
<g id="edge2" class="edge">
<title>AppComponent&#45;&gt;AppModule</title>
<path fill="none" stroke="black" d="M1497,-122.22C1497,-140.83 1497,-167 1497,-167 1497,-167 1066.93,-167 1066.93,-167"/>
<polygon fill="black" stroke="black" points="1066.93,-163.5 1056.93,-167 1066.93,-170.5 1066.93,-163.5"/>
</g>
<!-- AreaAddModalComponent -->
<g id="node3" class="node">
<title>AreaAddModalComponent</title>
<polygon fill="#ffffb3" stroke="black" points="1426.69,-122 1257.31,-122 1257.31,-86 1426.69,-86 1426.69,-122"/>
<text text-anchor="middle" x="1342" y="-99.8" font-family="Times,serif" font-size="14.00">AreaAddModalComponent</text>
</g>
<!-- AreaAddModalComponent&#45;&gt;AppModule -->
<g id="edge3" class="edge">
<title>AreaAddModalComponent&#45;&gt;AppModule</title>
<path fill="none" stroke="black" d="M1342,-122.03C1342,-139.06 1342,-162 1342,-162 1342,-162 1066.75,-162 1066.75,-162"/>
<polygon fill="black" stroke="black" points="1066.75,-158.5 1056.75,-162 1066.75,-165.5 1066.75,-158.5"/>
</g>
<!-- AreaCardComponent -->
<g id="node4" class="node">
<title>AreaCardComponent</title>
<polygon fill="#ffffb3" stroke="black" points="1239.74,-122 1104.26,-122 1104.26,-86 1239.74,-86 1239.74,-122"/>
<text text-anchor="middle" x="1172" y="-99.8" font-family="Times,serif" font-size="14.00">AreaCardComponent</text>
</g>
<!-- AreaCardComponent&#45;&gt;AppModule -->
<g id="edge4" class="edge">
<title>AreaCardComponent&#45;&gt;AppModule</title>
<path fill="none" stroke="black" d="M1172,-122.24C1172,-137.57 1172,-157 1172,-157 1172,-157 1066.66,-157 1066.66,-157"/>
<polygon fill="black" stroke="black" points="1066.66,-153.5 1056.66,-157 1066.66,-160.5 1066.66,-153.5"/>
</g>
<!-- AreacreateComponent -->
<g id="node5" class="node">
<title>AreacreateComponent</title>
<polygon fill="#ffffb3" stroke="black" points="1085.94,-122 944.06,-122 944.06,-86 1085.94,-86 1085.94,-122"/>
<text text-anchor="middle" x="1015" y="-99.8" font-family="Times,serif" font-size="14.00">AreacreateComponent</text>
</g>
<!-- AreacreateComponent&#45;&gt;AppModule -->
<g id="edge5" class="edge">
<title>AreacreateComponent&#45;&gt;AppModule</title>
<path fill="none" stroke="black" d="M1015,-122.11C1015,-122.11 1015,-140.99 1015,-140.99"/>
<polygon fill="black" stroke="black" points="1011.5,-140.99 1015,-150.99 1018.5,-140.99 1011.5,-140.99"/>
</g>
<!-- AreamodifyComponent -->
<g id="node6" class="node">
<title>AreamodifyComponent</title>
<polygon fill="#ffffb3" stroke="black" points="926.47,-122 777.53,-122 777.53,-86 926.47,-86 926.47,-122"/>
<text text-anchor="middle" x="852" y="-99.8" font-family="Times,serif" font-size="14.00">AreamodifyComponent</text>
</g>
<!-- AreamodifyComponent&#45;&gt;AppModule -->
<g id="edge6" class="edge">
<title>AreamodifyComponent&#45;&gt;AppModule</title>
<path fill="none" stroke="black" d="M852,-122.24C852,-137.57 852,-157 852,-157 852,-157 963.02,-157 963.02,-157"/>
<polygon fill="black" stroke="black" points="963.02,-160.5 973.02,-157 963.02,-153.5 963.02,-160.5"/>
</g>
<!-- HomeComponent -->
<g id="node7" class="node">
<title>HomeComponent</title>
<polygon fill="#ffffb3" stroke="black" points="759.55,-122 644.45,-122 644.45,-86 759.55,-86 759.55,-122"/>
<text text-anchor="middle" x="702" y="-99.8" font-family="Times,serif" font-size="14.00">HomeComponent</text>
</g>
<!-- HomeComponent&#45;&gt;AppModule -->
<g id="edge7" class="edge">
<title>HomeComponent&#45;&gt;AppModule</title>
<path fill="none" stroke="black" d="M702,-122.03C702,-139.06 702,-162 702,-162 702,-162 963.11,-162 963.11,-162"/>
<polygon fill="black" stroke="black" points="963.11,-165.5 973.11,-162 963.11,-158.5 963.11,-165.5"/>
</g>
<!-- LoginComponent -->
<g id="node8" class="node">
<title>LoginComponent</title>
<polygon fill="#ffffb3" stroke="black" points="626.28,-122 511.72,-122 511.72,-86 626.28,-86 626.28,-122"/>
<text text-anchor="middle" x="569" y="-99.8" font-family="Times,serif" font-size="14.00">LoginComponent</text>
</g>
<!-- LoginComponent&#45;&gt;AppModule -->
<g id="edge8" class="edge">
<title>LoginComponent&#45;&gt;AppModule</title>
<path fill="none" stroke="black" d="M569,-122.22C569,-140.83 569,-167 569,-167 569,-167 963.04,-167 963.04,-167"/>
<polygon fill="black" stroke="black" points="963.04,-170.5 973.04,-167 963.04,-163.5 963.04,-170.5"/>
</g>
<!-- ProfileComponent -->
<g id="node9" class="node">
<title>ProfileComponent</title>
<polygon fill="#ffffb3" stroke="black" points="493.93,-122 374.07,-122 374.07,-86 493.93,-86 493.93,-122"/>
<text text-anchor="middle" x="434" y="-99.8" font-family="Times,serif" font-size="14.00">ProfileComponent</text>
</g>
<!-- ProfileComponent&#45;&gt;AppModule -->
<g id="edge9" class="edge">
<title>ProfileComponent&#45;&gt;AppModule</title>
<path fill="none" stroke="black" d="M434,-122.22C434,-142.37 434,-172 434,-172 434,-172 963.22,-172 963.22,-172"/>
<polygon fill="black" stroke="black" points="963.22,-175.5 973.22,-172 963.22,-168.5 963.22,-175.5"/>
</g>
<!-- RegisterComponent -->
<g id="node10" class="node">
<title>RegisterComponent</title>
<polygon fill="#ffffb3" stroke="black" points="355.98,-122 228.02,-122 228.02,-86 355.98,-86 355.98,-122"/>
<text text-anchor="middle" x="292" y="-99.8" font-family="Times,serif" font-size="14.00">RegisterComponent</text>
</g>
<!-- RegisterComponent&#45;&gt;AppModule -->
<g id="edge10" class="edge">
<title>RegisterComponent&#45;&gt;AppModule</title>
<path fill="none" stroke="black" d="M292,-122.04C292,-143.66 292,-177 292,-177 292,-177 963.27,-177 963.27,-177"/>
<polygon fill="black" stroke="black" points="963.27,-180.5 973.27,-177 963.27,-173.5 963.27,-180.5"/>
</g>
<!-- TransparentButtonComponent -->
<g id="node11" class="node">
<title>TransparentButtonComponent</title>
<polygon fill="#ffffb3" stroke="black" points="210.3,-122 23.7,-122 23.7,-86 210.3,-86 210.3,-122"/>
<text text-anchor="middle" x="117" y="-99.8" font-family="Times,serif" font-size="14.00">TransparentButtonComponent</text>
</g>
<!-- TransparentButtonComponent&#45;&gt;AppModule -->
<g id="edge11" class="edge">
<title>TransparentButtonComponent&#45;&gt;AppModule</title>
<path fill="none" stroke="black" d="M117,-122.09C117,-145.13 117,-182 117,-182 117,-182 963.19,-182 963.19,-182"/>
<polygon fill="black" stroke="black" points="963.19,-185.5 973.19,-182 963.19,-178.5 963.19,-185.5"/>
</g>
<!-- AppComponent  -->
<g id="node14" class="node">
<title>AppComponent </title>
<polygon fill="#80b1d3" stroke="black" points="1069.44,-252 960.56,-252 960.56,-216 1069.44,-216 1069.44,-252"/>
<text text-anchor="middle" x="1015" y="-229.8" font-family="Times,serif" font-size="14.00">AppComponent </text>
</g>
<!-- AppModule&#45;&gt;AppComponent  -->
<g id="edge13" class="edge">
<title>AppModule&#45;&gt;AppComponent </title>
<path fill="none" stroke="black" stroke-dasharray="1,5" d="M1015,-187.11C1015,-187.11 1015,-205.99 1015,-205.99"/>
<polygon fill="black" stroke="black" points="1011.5,-205.99 1015,-215.99 1018.5,-205.99 1011.5,-205.99"/>
</g>
<!-- AppRoutingModule -->
<g id="node13" class="node">
<title>AppRoutingModule</title>
<polygon fill="#8dd3c7" stroke="black" points="1861.27,-122 1858.27,-126 1837.27,-126 1834.27,-122 1732.73,-122 1732.73,-86 1861.27,-86 1861.27,-122"/>
<text text-anchor="middle" x="1797" y="-99.8" font-family="Times,serif" font-size="14.00">AppRoutingModule</text>
</g>
<!-- AppRoutingModule&#45;&gt;AppModule -->
<g id="edge12" class="edge">
<title>AppRoutingModule&#45;&gt;AppModule</title>
<path fill="none" stroke="black" d="M1797,-122.04C1797,-143.66 1797,-177 1797,-177 1797,-177 1066.77,-177 1066.77,-177"/>
<polygon fill="black" stroke="black" points="1066.77,-173.5 1056.77,-177 1066.77,-180.5 1066.77,-173.5"/>
</g>
<!-- SessionService -->
<g id="node15" class="node">
<title>SessionService</title>
<ellipse fill="#fdb462" stroke="black" cx="1954" cy="-104" rx="69.5" ry="18"/>
<text text-anchor="middle" x="1954" y="-99.8" font-family="Times,serif" font-size="14.00">SessionService</text>
</g>
<!-- SessionService&#45;&gt;AppModule -->
<g id="edge14" class="edge">
<title>SessionService&#45;&gt;AppModule</title>
<path fill="none" stroke="black" d="M1954,-122.09C1954,-145.13 1954,-182 1954,-182 1954,-182 1066.86,-182 1066.86,-182"/>
<polygon fill="black" stroke="black" points="1066.86,-178.5 1056.86,-182 1066.86,-185.5 1066.86,-178.5"/>
</g>
</g>
</svg>
