<?xml version="1.0" encoding="UTF-8" standalone="no"?>
<!DOCTYPE svg PUBLIC "-//W3C//DTD SVG 1.1//EN"
 "http://www.w3.org/Graphics/SVG/1.1/DTD/svg11.dtd">
<!-- Generated by graphviz version 2.47.0 (20210316.0004)
 -->
<!-- Title: dependencies Pages: 1 -->
<svg width="2055pt" height="284pt"
 viewBox="0.00 0.00 2055.00 284.00" xmlns="http://www.w3.org/2000/svg" xmlns:xlink="http://www.w3.org/1999/xlink">
<g id="graph0" class="graph" transform="scale(1 1) rotate(0) translate(4 280)">
<title>dependencies</title>
<polygon fill="white" stroke="transparent" points="-4,4 -4,-280 2051,-280 2051,4 -4,4"/>
<text text-anchor="start" x="1002.51" y="-42.4" font-family="Times-12" font-weight="bold" font-size="14.00">Legend</text>
<polygon fill="#ffffb3" stroke="transparent" points="789.5,-10 789.5,-30 809.5,-30 809.5,-10 789.5,-10"/>
<text text-anchor="start" x="813.13" y="-15.4" font-family="Times-12" font-size="14.00"> &#160;Declarations</text>
<polygon fill="#8dd3c7" stroke="transparent" points="902.5,-10 902.5,-30 922.5,-30 922.5,-10 902.5,-10"/>
<text text-anchor="start" x="926.23" y="-15.4" font-family="Times-12" font-size="14.00"> &#160;Module</text>
<polygon fill="#80b1d3" stroke="transparent" points="988.5,-10 988.5,-30 1008.5,-30 1008.5,-10 988.5,-10"/>
<text text-anchor="start" x="1012.28" y="-15.4" font-family="Times-12" font-size="14.00"> &#160;Bootstrap</text>
<polygon fill="#fdb462" stroke="transparent" points="1085.5,-10 1085.5,-30 1105.5,-30 1105.5,-10 1085.5,-10"/>
<text text-anchor="start" x="1109.17" y="-15.4" font-family="Times-12" font-size="14.00"> &#160;Providers</text>
<polygon fill="#fb8072" stroke="transparent" points="1181.5,-10 1181.5,-30 1201.5,-30 1201.5,-10 1181.5,-10"/>
<text text-anchor="start" x="1205.23" y="-15.4" font-family="Times-12" font-size="14.00"> &#160;Exports</text>
<g id="clust1" class="cluster">
<title>cluster_AppModule</title>
<polygon fill="none" stroke="black" stroke-dasharray="1,5" points="8,-70 8,-268 2039,-268 2039,-70 8,-70"/>
</g>
<g id="clust2" class="cluster">
<title>cluster_AppModule_declarations</title>
<polygon fill="none" stroke="black" points="330,-78 330,-130 2031,-130 2031,-78 330,-78"/>
</g>
<g id="clust14" class="cluster">
<title>cluster_AppModule_imports</title>
<polygon fill="none" stroke="black" points="178,-78 178,-130 322,-130 322,-78 178,-78"/>
</g>
<g id="clust16" class="cluster">
<title>cluster_AppModule_bootstrap</title>
<polygon fill="none" stroke="black" points="954,-208 954,-260 1078,-260 1078,-208 954,-208"/>
</g>
<g id="clust17" class="cluster">
<title>cluster_AppModule_providers</title>
<polygon fill="none" stroke="black" points="16,-78 16,-130 170,-130 170,-78 16,-78"/>
</g>
<!-- AboutJsonComponent -->
<g id="node1" class="node">
<title>AboutJsonComponent</title>
<polygon fill="#ffffb3" stroke="black" points="2022.72,-122 1881.28,-122 1881.28,-86 2022.72,-86 2022.72,-122"/>
<text text-anchor="middle" x="1952" y="-99.8" font-family="Times,serif" font-size="14.00">AboutJsonComponent</text>
</g>
<!-- AppModule -->
<g id="node12" class="node">
<title>AppModule</title>
<polygon fill="#8dd3c7" stroke="black" points="1057.66,-187 1054.66,-191 1033.66,-191 1030.66,-187 974.34,-187 974.34,-151 1057.66,-151 1057.66,-187"/>
<text text-anchor="middle" x="1016" y="-164.8" font-family="Times,serif" font-size="14.00">AppModule</text>
</g>
<!-- AboutJsonComponent&#45;&gt;AppModule -->
<g id="edge1" class="edge">
<title>AboutJsonComponent&#45;&gt;AppModule</title>
<path fill="none" stroke="black" d="M1952,-122.09C1952,-145.13 1952,-182 1952,-182 1952,-182 1067.73,-182 1067.73,-182"/>
<polygon fill="black" stroke="black" points="1067.73,-178.5 1057.73,-182 1067.73,-185.5 1067.73,-178.5"/>
</g>
<!-- AppComponent -->
<g id="node2" class="node">
<title>AppComponent</title>
<polygon fill="#ffffb3" stroke="black" points="1863.94,-122 1758.06,-122 1758.06,-86 1863.94,-86 1863.94,-122"/>
<text text-anchor="middle" x="1811" y="-99.8" font-family="Times,serif" font-size="14.00">AppComponent</text>
</g>
<!-- AppComponent&#45;&gt;AppModule -->
<g id="edge2" class="edge">
<title>AppComponent&#45;&gt;AppModule</title>
<path fill="none" stroke="black" d="M1811,-122.04C1811,-143.66 1811,-177 1811,-177 1811,-177 1067.9,-177 1067.9,-177"/>
<polygon fill="black" stroke="black" points="1067.9,-173.5 1057.9,-177 1067.9,-180.5 1067.9,-173.5"/>
</g>
<!-- AreaAddModalComponent -->
<g id="node3" class="node">
<title>AreaAddModalComponent</title>
<polygon fill="#ffffb3" stroke="black" points="1740.69,-122 1571.31,-122 1571.31,-86 1740.69,-86 1740.69,-122"/>
<text text-anchor="middle" x="1656" y="-99.8" font-family="Times,serif" font-size="14.00">AreaAddModalComponent</text>
</g>
<!-- AreaAddModalComponent&#45;&gt;AppModule -->
<g id="edge3" class="edge">
<title>AreaAddModalComponent&#45;&gt;AppModule</title>
<path fill="none" stroke="black" d="M1656,-122.22C1656,-142.37 1656,-172 1656,-172 1656,-172 1067.99,-172 1067.99,-172"/>
<polygon fill="black" stroke="black" points="1067.99,-168.5 1057.99,-172 1067.99,-175.5 1067.99,-168.5"/>
</g>
<!-- AreaCardComponent -->
<g id="node4" class="node">
<title>AreaCardComponent</title>
<polygon fill="#ffffb3" stroke="black" points="1553.74,-122 1418.26,-122 1418.26,-86 1553.74,-86 1553.74,-122"/>
<text text-anchor="middle" x="1486" y="-99.8" font-family="Times,serif" font-size="14.00">AreaCardComponent</text>
</g>
<!-- AreaCardComponent&#45;&gt;AppModule -->
<g id="edge4" class="edge">
<title>AreaCardComponent&#45;&gt;AppModule</title>
<path fill="none" stroke="black" d="M1486,-122.22C1486,-140.83 1486,-167 1486,-167 1486,-167 1067.71,-167 1067.71,-167"/>
<polygon fill="black" stroke="black" points="1067.71,-163.5 1057.71,-167 1067.71,-170.5 1067.71,-163.5"/>
</g>
<!-- AreacreateComponent -->
<g id="node5" class="node">
<title>AreacreateComponent</title>
<polygon fill="#ffffb3" stroke="black" points="1399.94,-122 1258.06,-122 1258.06,-86 1399.94,-86 1399.94,-122"/>
<text text-anchor="middle" x="1329" y="-99.8" font-family="Times,serif" font-size="14.00">AreacreateComponent</text>
</g>
<!-- AreacreateComponent&#45;&gt;AppModule -->
<g id="edge5" class="edge">
<title>AreacreateComponent&#45;&gt;AppModule</title>
<path fill="none" stroke="black" d="M1329,-122.03C1329,-139.06 1329,-162 1329,-162 1329,-162 1067.89,-162 1067.89,-162"/>
<polygon fill="black" stroke="black" points="1067.89,-158.5 1057.89,-162 1067.89,-165.5 1067.89,-158.5"/>
</g>
<!-- AreamodifyComponent -->
<g id="node6" class="node">
<title>AreamodifyComponent</title>
<polygon fill="#ffffb3" stroke="black" points="1240.47,-122 1091.53,-122 1091.53,-86 1240.47,-86 1240.47,-122"/>
<text text-anchor="middle" x="1166" y="-99.8" font-family="Times,serif" font-size="14.00">AreamodifyComponent</text>
</g>
<!-- AreamodifyComponent&#45;&gt;AppModule -->
<g id="edge6" class="edge">
<title>AreamodifyComponent&#45;&gt;AppModule</title>
<path fill="none" stroke="black" d="M1166,-122.24C1166,-137.57 1166,-157 1166,-157 1166,-157 1067.78,-157 1067.78,-157"/>
<polygon fill="black" stroke="black" points="1067.78,-153.5 1057.78,-157 1067.78,-160.5 1067.78,-153.5"/>
</g>
<!-- HomeComponent -->
<g id="node7" class="node">
<title>HomeComponent</title>
<polygon fill="#ffffb3" stroke="black" points="1073.55,-122 958.45,-122 958.45,-86 1073.55,-86 1073.55,-122"/>
<text text-anchor="middle" x="1016" y="-99.8" font-family="Times,serif" font-size="14.00">HomeComponent</text>
</g>
<!-- HomeComponent&#45;&gt;AppModule -->
<g id="edge7" class="edge">
<title>HomeComponent&#45;&gt;AppModule</title>
<path fill="none" stroke="black" d="M1016,-122.11C1016,-122.11 1016,-140.99 1016,-140.99"/>
<polygon fill="black" stroke="black" points="1012.5,-140.99 1016,-150.99 1019.5,-140.99 1012.5,-140.99"/>
</g>
<!-- LoginComponent -->
<g id="node8" class="node">
<title>LoginComponent</title>
<polygon fill="#ffffb3" stroke="black" points="940.28,-122 825.72,-122 825.72,-86 940.28,-86 940.28,-122"/>
<text text-anchor="middle" x="883" y="-99.8" font-family="Times,serif" font-size="14.00">LoginComponent</text>
</g>
<!-- LoginComponent&#45;&gt;AppModule -->
<g id="edge8" class="edge">
<title>LoginComponent&#45;&gt;AppModule</title>
<path fill="none" stroke="black" d="M883,-122.24C883,-137.57 883,-157 883,-157 883,-157 964.28,-157 964.28,-157"/>
<polygon fill="black" stroke="black" points="964.28,-160.5 974.28,-157 964.28,-153.5 964.28,-160.5"/>
</g>
<!-- ProfileComponent -->
<g id="node9" class="node">
<title>ProfileComponent</title>
<polygon fill="#ffffb3" stroke="black" points="807.93,-122 688.07,-122 688.07,-86 807.93,-86 807.93,-122"/>
<text text-anchor="middle" x="748" y="-99.8" font-family="Times,serif" font-size="14.00">ProfileComponent</text>
</g>
<!-- ProfileComponent&#45;&gt;AppModule -->
<g id="edge9" class="edge">
<title>ProfileComponent&#45;&gt;AppModule</title>
<path fill="none" stroke="black" d="M748,-122.03C748,-139.06 748,-162 748,-162 748,-162 964.12,-162 964.12,-162"/>
<polygon fill="black" stroke="black" points="964.13,-165.5 974.12,-162 964.12,-158.5 964.13,-165.5"/>
</g>
<!-- RegisterComponent -->
<g id="node10" class="node">
<title>RegisterComponent</title>
<polygon fill="#ffffb3" stroke="black" points="669.98,-122 542.02,-122 542.02,-86 669.98,-86 669.98,-122"/>
<text text-anchor="middle" x="606" y="-99.8" font-family="Times,serif" font-size="14.00">RegisterComponent</text>
</g>
<!-- RegisterComponent&#45;&gt;AppModule -->
<g id="edge10" class="edge">
<title>RegisterComponent&#45;&gt;AppModule</title>
<path fill="none" stroke="black" d="M606,-122.22C606,-140.83 606,-167 606,-167 606,-167 964.05,-167 964.05,-167"/>
<polygon fill="black" stroke="black" points="964.05,-170.5 974.05,-167 964.05,-163.5 964.05,-170.5"/>
</g>
<!-- TransparentButtonComponent -->
<g id="node11" class="node">
<title>TransparentButtonComponent</title>
<polygon fill="#ffffb3" stroke="black" points="524.3,-122 337.7,-122 337.7,-86 524.3,-86 524.3,-122"/>
<text text-anchor="middle" x="431" y="-99.8" font-family="Times,serif" font-size="14.00">TransparentButtonComponent</text>
</g>
<!-- TransparentButtonComponent&#45;&gt;AppModule -->
<g id="edge11" class="edge">
<title>TransparentButtonComponent&#45;&gt;AppModule</title>
<path fill="none" stroke="black" d="M431,-122.22C431,-142.37 431,-172 431,-172 431,-172 963.93,-172 963.93,-172"/>
<polygon fill="black" stroke="black" points="963.93,-175.5 973.93,-172 963.93,-168.5 963.93,-175.5"/>
</g>
<!-- AppComponent  -->
<g id="node14" class="node">
<title>AppComponent </title>
<polygon fill="#80b1d3" stroke="black" points="1070.44,-252 961.56,-252 961.56,-216 1070.44,-216 1070.44,-252"/>
<text text-anchor="middle" x="1016" y="-229.8" font-family="Times,serif" font-size="14.00">AppComponent </text>
</g>
<!-- AppModule&#45;&gt;AppComponent  -->
<g id="edge13" class="edge">
<title>AppModule&#45;&gt;AppComponent </title>
<path fill="none" stroke="black" stroke-dasharray="1,5" d="M1016,-187.11C1016,-187.11 1016,-205.99 1016,-205.99"/>
<polygon fill="black" stroke="black" points="1012.5,-205.99 1016,-215.99 1019.5,-205.99 1012.5,-205.99"/>
</g>
<!-- AppRoutingModule -->
<g id="node13" class="node">
<title>AppRoutingModule</title>
<polygon fill="#8dd3c7" stroke="black" points="314.27,-122 311.27,-126 290.27,-126 287.27,-122 185.73,-122 185.73,-86 314.27,-86 314.27,-122"/>
<text text-anchor="middle" x="250" y="-99.8" font-family="Times,serif" font-size="14.00">AppRoutingModule</text>
</g>
<!-- AppRoutingModule&#45;&gt;AppModule -->
<g id="edge12" class="edge">
<title>AppRoutingModule&#45;&gt;AppModule</title>
<path fill="none" stroke="black" d="M250,-122.04C250,-143.66 250,-177 250,-177 250,-177 964.27,-177 964.27,-177"/>
<polygon fill="black" stroke="black" points="964.27,-180.5 974.27,-177 964.27,-173.5 964.27,-180.5"/>
</g>
<!-- SessionService -->
<g id="node15" class="node">
<title>SessionService</title>
<ellipse fill="#fdb462" stroke="black" cx="93" cy="-104" rx="69.5" ry="18"/>
<text text-anchor="middle" x="93" y="-99.8" font-family="Times,serif" font-size="14.00">SessionService</text>
</g>
<!-- SessionService&#45;&gt;AppModule -->
<g id="edge14" class="edge">
<title>SessionService&#45;&gt;AppModule</title>
<path fill="none" stroke="black" d="M93,-122.09C93,-145.13 93,-182 93,-182 93,-182 964.25,-182 964.25,-182"/>
<polygon fill="black" stroke="black" points="964.25,-185.5 974.25,-182 964.25,-178.5 964.25,-185.5"/>
</g>
</g>
</svg>
