<?xml version="1.0" standalone="no"?>
<!DOCTYPE svg PUBLIC "-//W3C//DTD SVG 20010904//EN"
 "http://www.w3.org/TR/2001/REC-SVG-20010904/DTD/svg10.dtd">
<svg version="1.0" xmlns="http://www.w3.org/2000/svg"
 width="128.000000pt" height="128.000000pt" viewBox="0 0 128.000000 128.000000"
 preserveAspectRatio="xMidYMid meet">

<g transform="translate(0.000000,128.000000) scale(0.100000,-0.100000)"
stroke="none">
<path d="M325 955 c-16 -15 -23 -30 -19 -42 4 -10 63 -75 133 -145 l126 -128
-126 -127 c-70 -71 -129 -136 -133 -146 -8 -25 36 -69 61 -61 10 4 75 63 146
133 l127 126 128 -126 c70 -70 135 -129 145 -133 25 -8 69 36 61 61 -4 10 -63
75 -133 146 l-126 127 126 128 c70 70 129 135 133 145 8 25 -36 69 -61 61 -10
-4 -75 -63 -145 -133 l-128 -126 -127 126 c-71 70 -136 129 -146 133 -12 4
-27 -3 -42 -19z"/>
</g>
</svg>
