<?xml version="1.0" standalone="no"?>
<!DOCTYPE svg PUBLIC "-//W3C//DTD SVG 20010904//EN"
 "http://www.w3.org/TR/2001/REC-SVG-20010904/DTD/svg10.dtd">
<svg version="1.0" xmlns="http://www.w3.org/2000/svg"
 width="477.000000pt" height="524.000000pt" viewBox="0 0 477.000000 524.000000"
 preserveAspectRatio="xMidYMid meet">

<g transform="translate(0.000000,524.000000) scale(0.100000,-0.100000)"
stroke="none">
<path d="M2280 4519 c-180 -11 -397 -49 -510 -89 -108 -38 -318 -125 -331
-136 -8 -8 -18 -14 -21 -14 -20 0 -185 -113 -283 -195 -151 -125 -175 -147
-175 -162 0 -17 0 -17 100 9 222 56 448 5 696 -158 101 -67 274 -264 422 -481
18 -26 43 -64 57 -83 13 -19 54 -82 91 -140 151 -234 356 -452 479 -510 135
-63 142 -65 270 -65 127 0 136 2 265 63 55 26 167 104 226 158 68 62 173 197
206 266 73 149 80 184 80 375 0 148 -3 181 -22 240 -30 93 -65 170 -129 283
-81 142 -122 198 -203 276 -156 152 -295 224 -588 308 -76 21 -315 54 -425 58
-49 2 -142 1 -205 -3z"/>
<path d="M1195 3264 c-77 -12 -206 -50 -265 -80 -222 -109 -403 -337 -483
-607 -79 -264 -80 -455 -5 -712 39 -134 105 -281 168 -375 9 -14 30 -45 46
-70 58 -92 257 -325 336 -395 148 -131 227 -186 418 -292 159 -88 417 -173
630 -208 111 -18 195 -23 206 -12 13 13 -7 38 -43 54 -46 18 -217 188 -238
235 -9 18 -19 40 -24 48 -19 31 -59 127 -77 185 -16 51 -19 94 -19 295 0 245
6 293 55 460 10 36 28 101 39 145 36 147 62 250 76 300 8 28 24 123 36 212
l23 162 -26 125 c-50 242 -134 357 -334 455 -91 46 -209 70 -359 75 -71 3
-143 2 -160 0z"/>
<path d="M4226 3188 c-3 -18 -7 -62 -9 -98 -10 -156 -108 -343 -249 -476 -145
-138 -309 -227 -543 -297 -170 -51 -312 -87 -346 -87 -13 0 -73 -14 -134 -31
-60 -17 -133 -37 -162 -44 -67 -17 -96 -29 -212 -88 -123 -62 -206 -122 -276
-199 -134 -148 -170 -363 -98 -588 8 -25 19 -63 24 -85 6 -22 16 -47 23 -55 8
-8 17 -26 21 -40 4 -13 16 -37 26 -52 11 -16 28 -42 39 -58 12 -17 32 -47 46
-68 45 -66 220 -210 276 -227 12 -4 37 -13 53 -20 17 -7 64 -24 105 -36 68
-21 94 -24 285 -24 150 0 220 4 245 13 19 8 78 26 130 41 52 16 118 41 146 57
162 91 196 115 278 193 104 101 190 205 245 299 66 113 157 303 181 377 13 39
31 94 41 123 11 30 19 64 19 75 1 12 7 40 16 62 8 22 21 87 29 145 8 58 19
134 25 170 5 36 10 106 10 156 0 95 -40 387 -64 464 -7 25 -18 63 -24 85 -45
172 -112 345 -134 345 -4 0 -9 -15 -12 -32z"/>
</g>
</svg>
