<?xml version="1.0" standalone="no"?>
<!DOCTYPE svg PUBLIC "-//W3C//DTD SVG 20010904//EN"
 "http://www.w3.org/TR/2001/REC-SVG-20010904/DTD/svg10.dtd">
<svg version="1.0" xmlns="http://www.w3.org/2000/svg"
 width="322.000000pt" height="220.000000pt" viewBox="0 0 322.000000 220.000000"
 preserveAspectRatio="xMidYMid meet">

<g transform="translate(0.000000,220.000000) scale(0.100000,-0.100000)"
stroke="none">
<path d="M543 2185 c-240 -43 -431 -162 -505 -313 l-33 -67 0 -705 0 -705 33
-67 c66 -134 232 -248 437 -300 l90 -23 1045 0 1045 0 90 23 c205 52 371 166
437 300 l33 67 0 705 0 705 -33 67 c-65 132 -232 247 -432 299 -80 21 -111 23
-520 26 l-435 4 35 -23 c61 -41 65 -128 11 -224 -66 -114 -206 -162 -334 -114
-158 59 -235 273 -123 341 31 19 26 19 -369 18 -281 -1 -421 -5 -472 -14z"/>
</g>
</svg>
